PathFileType	4	(X/Y/Z)	Patient4_TMGait_0pt3_02_right_02.trc.trc
DataRate	CameraRate	NumFrames	NumMarkers	Units	OrigDataRate	OrigDataStartFrame	OrigNumFrames
50.541516245487	50.541516245487	4	33	mm	50.541516245487	53	       141
Frame#	Time	Sacral			L.Shoulder			Chest			R.Shoulder			Neck			R.ASIS			L.ASIS			R.Thigh.Superior			R.Thigh.Lateral			R.Thigh.Inferior			R.Patella			L.Thigh.Superior			L.Thigh.Lateral			L.Thigh.Inferior			L.Patella			L.Shank.Superior			L.Shank.Lateral			L.Shank.Inferior			R.Shank.Superior			R.Shank.Lateral			R.Shank.Inferior			R.Heel			R.Midfoot.Superior			R.Midfoot.Lateral			R.Toe			L.Heel			L.Midfoot.Lateral			L.Midfoot.Superior			L.Toe			L.Elbow			L.Wrist			R.Elbow			R.Wrist			
		X1	Y1	Z1	X2	Y2	Z2	X3	Y3	Z3	X4	Y4	Z4	X5	Y5	Z5	X6	Y6	Z6	X7	Y7	Z7	X8	Y8	Z8	X9	Y9	Z9	X10	Y10	Z10	X11	Y11	Z11	X12	Y12	Z12	X13	Y13	Z13	X14	Y14	Z14	X15	Y15	Z15	X16	Y16	Z16	X17	Y17	Z17	X18	Y18	Z18	X19	Y19	Z19	X20	Y20	Z20	X21	Y21	Z21	X22	Y22	Z22	X23	Y23	Z23	X24	Y24	Z24	X25	Y25	Z25	X26	Y26	Z26	X27	Y27	Z27	X28	Y28	Z28	X29	Y29	Z29	X30	Y30	Z30	X31	Y31	Z31	X32	Y32	Z32	X33	Y33	Z33	

53	3.268857142857	711.774140519827	984.732913798702	573.686695358036	897.123698951319	1412.341442663034	384.047061589787	994.739301315831	1347.703945010364	549.566430050270	907.115282802554	1423.589203999724	720.194607020929	877.829666710766	1478.371770120974	540.185224763028	947.146088041809	927.180548254623	688.818539342524	928.409228023926	949.086447697598	414.752357105471	1001.273719086224	729.978844082050	645.065080011733	925.824724074444	610.129930774173	692.436727509257	1005.718039317819	567.932419423925	608.388328447699	1009.454501305781	471.096857159855	607.939191616901	1018.819897243256	767.502898989370	455.916186456631	982.488763190257	637.313180813518	382.008093628908	1078.596287961404	578.922942900897	458.505209207871	1095.092389951402	491.152178345817	449.848061002970	1036.485573542051	422.869963970089	431.120843311730	904.029470876360	364.062914282210	375.632037343065	911.839128377424	230.583881996009	419.743512724793	962.122715902495	384.115783987714	609.498150359447	873.843316884283	290.697056968465	665.985572272893	896.083447856848	194.312327453841	598.082585434896	737.374970199098	43.918469079498	561.423514302223	907.427250563288	95.347554753978	603.302270464523	817.187185673330	37.415996091376	640.080840834650	1025.757144823102	42.143460282173	639.708508829951	735.861256445460	127.806093340729	450.273477767705	800.108248044199	106.365857232617	365.098321971992	901.315783522603	132.724600246104	388.840962467750	999.591557500291	44.517312021057	345.690055639505	901.322149638798	1051.277113096275	286.832693082452	981.324944710800	804.310314302714	292.532294984688	893.191315730249	1079.315681037537	856.918530684209	1076.219514960573	896.587555074026	883.569667805070	
54	3.288642857143	711.057936845440	983.661098027585	576.936636800968	892.710391469466	1410.452144109956	383.370255362134	993.393829977453	1346.771236097457	547.438819510284	908.830217700665	1423.354608512441	719.378015890102	876.468824319268	1477.374240686984	539.458971972377	947.564389944832	926.226256773059	689.015282408833	925.479912402058	948.216231929318	415.224205293158	1000.545144707998	728.719175727495	644.750774581657	925.373792498605	608.932745572810	692.665131892141	1004.400237491211	566.659904031815	607.887263940775	1007.715968177673	469.513908613302	607.313391039382	1017.866217524158	768.937653019895	455.629712385738	982.917800075572	638.421650669544	381.596644472429	1080.294599056503	581.552879275688	457.332520357642	1098.974376928255	495.116488947959	448.625180799079	1043.790421964525	425.223491668821	430.325501430012	914.740478920874	358.929351287881	375.715814508034	930.611383631407	226.032556904876	420.063854737598	959.458786277211	382.801539930633	609.096169110387	870.561249610115	290.078004272228	665.899679226396	891.496852981904	193.569958365157	597.806567015448	731.482582269318	44.009600935374	561.517014905210	901.609464315203	95.394111391868	603.417964702408	811.280260727979	37.433255063586	640.092348046282	1019.840417524676	41.907786659844	639.751362687328	761.091311070497	113.341514364377	452.029870164518	826.067879883986	95.246475844946	366.576320633039	925.787475996563	127.469656761523	389.622484052614	1028.858659252926	44.918237814673	346.382574341847	884.499300553708	1048.748035955990	289.159799032583	946.770585121691	796.294363788180	296.622860576482	907.079617563154	1079.179668721436	857.112236288737	1104.143539563886	911.783058201463	877.374522506398	
55	3.308428571429	710.547205099755	983.293100246761	579.906179467856	888.408034835537	1409.244962116892	382.644589055129	992.208642831259	1346.383492760331	545.095161091810	910.848505430969	1423.688567997186	718.324176308305	875.261830521119	1476.933549831438	538.618729268177	947.975754472416	925.712570812854	688.948969235110	922.712447999268	947.847972321711	415.484938255152	999.264947932793	727.668559472130	644.325571851423	924.042648291327	608.168317593451	692.875633627090	1002.061544766311	565.600533127447	607.404202798172	1004.758567047059	468.311884661449	606.754049042720	1016.518696996092	770.419975693100	455.087729909566	982.569844351256	639.722474491667	380.763631131687	1080.965342794182	584.051773417086	455.734892256182	1101.664298831540	499.187773804139	447.027009218641	1050.122006996648	427.882506452851	429.172408244190	925.306534728605	353.968442128045	375.030298954593	949.291521467149	222.152522705342	419.859278153206	955.859006923459	381.887725917310	608.780434187933	866.583970786976	289.651659776260	665.882510408634	886.514016414677	193.076824760557	597.629842644084	725.581571950874	44.109091353944	561.649433999352	895.720274102895	95.379175027767	603.458338673509	805.363605014030	37.450633267556	640.118028936475	1013.900894270562	41.697010073951	639.790966815069	786.844288378629	99.850800541723	452.785139421106	852.744037619558	84.906355096298	367.403658951255	950.590321784693	122.893723572262	390.043806417806	1058.250403769936	46.044258859893	347.407573396186	866.873560971991	1047.631569825638	290.996372803221	912.876095140020	791.455138553100	300.717091401080	921.544763752652	1080.133453459741	856.859664131207	1131.554592227423	929.714068638383	870.035776672060	
56	3.328214285714	710.232906580640	983.652694102810	582.575403150512	884.247156010531	1408.744478896371	381.872436238504	991.193485077575	1346.552051168733	542.539972448620	913.173507070167	1424.613121272729	717.017271252889	874.213417776999	1477.061400369238	537.663125231029	948.399534759038	925.654911037627	688.616255396291	920.156489000189	948.037011907486	415.509323273085	997.471455278101	726.850112242346	643.786538146645	921.872081966366	607.849892773075	693.066662893725	998.752416855728	564.775148358124	606.946780589210	1000.648248354086	467.505958568717	606.277368366104	1014.817549494200	771.944671505881	454.350049835863	981.474027384715	641.207003794487	379.572176823270	1080.589163972157	586.357401214672	453.824390562869	1103.103403018040	503.285519722193	445.185153032142	1055.358053517899	430.818240499961	427.770360608593	935.610413509834	349.353918131692	373.602970104804	967.541430777707	219.134145131794	419.192290760760	951.367111328835	381.382663295697	608.558012853514	861.946852033549	289.434214165826	665.942394470983	881.156592550076	192.841295643078	597.553303085510	719.668617999421	44.223587479259	561.814922203062	889.758482929419	95.292302460029	603.405481466400	799.438308868749	37.471042524486	640.157462751455	1007.940883866852	41.511615049919	639.825696859941	812.628235797605	87.750562506362	452.494820424070	879.710176088843	75.707798411055	367.591590447917	975.310004991432	119.236152123556	390.169402322681	1087.282631688903	48.032454267450	348.920201300465	848.705972675174	1048.003741000426	292.393144560504	880.046133260128	789.577388093545	304.736348608400	936.487715109069	1082.264141245159	856.182718096650	1158.013250454373	950.273516968459	861.674791884594	
